<svg width="17" height="17" viewBox="0 0 17 17" fill="none" xmlns="http://www.w3.org/2000/svg">
<path d="M14.5054 2.5C14.8706 2.5 15.1666 2.79663 15.1666 3.16227V13.8377C15.1666 14.2035 14.8631 14.5 14.5054 14.5H2.49445C2.12929 14.5 1.83325 14.2034 1.83325 13.8377V3.16227C1.83325 2.79651 2.13679 2.5 2.49445 2.5H14.5054ZM13.8333 3.83333H3.16659V13.1667H13.8333V3.83333ZM12.4999 10.5V11.8333H4.49992V10.5H12.4999ZM8.49992 5.16667V9.16667H4.49992V5.16667H8.49992ZM12.4999 7.83333V9.16667H9.83325V7.83333H12.4999ZM7.16658 6.5H5.83325V7.83333H7.16658V6.5ZM12.4999 5.16667V6.5H9.83325V5.16667H12.4999Z" fill="white"/>
</svg>
