<svg width="21" height="20" viewBox="0 0 21 20" fill="none" xmlns="http://www.w3.org/2000/svg">
<path d="M18.9701 2.50166e-06H2.03006C1.83964 -0.00264212 1.65056 0.03225 1.47362 0.102686C1.29669 0.173123 1.13536 0.277723 0.998856 0.410514C0.86235 0.543306 0.75334 0.701687 0.678051 0.876612C0.602761 1.05154 0.562667 1.23958 0.560059 1.43V18.57C0.562667 18.7604 0.602761 18.9485 0.678051 19.1234C0.75334 19.2983 0.86235 19.4567 0.998856 19.5895C1.13536 19.7223 1.29669 19.8269 1.47362 19.8973C1.65056 19.9678 1.83964 20.0026 2.03006 20H18.9701C19.1605 20.0026 19.3496 19.9678 19.5265 19.8973C19.7034 19.8269 19.8648 19.7223 20.0013 19.5895C20.1378 19.4567 20.2468 19.2983 20.3221 19.1234C20.3974 18.9485 20.4375 18.7604 20.4401 18.57V1.43C20.4375 1.23958 20.3974 1.05154 20.3221 0.876612C20.2468 0.701687 20.1378 0.543306 20.0013 0.410514C19.8648 0.277723 19.7034 0.173123 19.5265 0.102686C19.3496 0.03225 19.1605 -0.00264212 18.9701 2.50166e-06ZM6.59006 16.74H3.59006V7.74H6.59006V16.74ZM5.09006 6.48C4.67632 6.48 4.27953 6.31565 3.98697 6.02309C3.69442 5.73053 3.53006 5.33374 3.53006 4.92C3.53006 4.50626 3.69442 4.10947 3.98697 3.81692C4.27953 3.52436 4.67632 3.36 5.09006 3.36C5.30975 3.33509 5.53224 3.35686 5.74293 3.42389C5.95363 3.49092 6.1478 3.60169 6.31272 3.74896C6.47763 3.89624 6.60958 4.07668 6.69993 4.27848C6.79028 4.48029 6.83698 4.6989 6.83698 4.92C6.83698 5.14111 6.79028 5.35972 6.69993 5.56152C6.60958 5.76332 6.47763 5.94377 6.31272 6.09104C6.1478 6.23831 5.95363 6.34909 5.74293 6.41612C5.53224 6.48315 5.30975 6.50492 5.09006 6.48ZM17.4101 16.74H14.4101V11.91C14.4101 10.7 13.9801 9.91 12.8901 9.91C12.5527 9.91247 12.2242 10.0183 11.9489 10.2132C11.6735 10.4081 11.4645 10.6827 11.3501 11C11.2718 11.235 11.2379 11.4826 11.2501 11.73V16.73H8.25006C8.25006 16.73 8.25006 8.55 8.25006 7.73H11.2501V9C11.5226 8.52711 11.919 8.13752 12.3965 7.8732C12.874 7.60889 13.4146 7.47985 13.9601 7.5C15.9601 7.5 17.4101 8.79 17.4101 11.56V16.74Z" fill="#2D92DB"/>
</svg>
