<svg width="305" height="86" viewBox="0 0 305 86" fill="none" xmlns="http://www.w3.org/2000/svg">
<g clip-path="url(#clip0_11_274)">
<path d="M12.2372 9.27866H9.8388V12.4421H12.2547C13.5006 12.4421 14.2184 11.839 14.2184 10.8821V10.8444C14.2184 9.81508 13.4627 9.27866 12.2372 9.27866Z" fill="white"/>
<path d="M69 27.3459C69 20.0933 66.1008 13.1378 60.9402 8.00943C55.7797 2.88108 48.7804 0 41.4823 0L0 0V82H69L53.5357 51.9314C58.173 49.6856 62.0817 46.1898 64.816 41.8427C67.5504 37.4956 69.0001 32.4723 69 27.3459ZM18.3354 25.5308H14.0871V35.4763H10.4224V25.5308H6.17405V22.3267H18.3354V25.5308ZM14.1046 19.2706L11.4436 15.2924H9.8388V19.2706H6.17405V6.1355H12.424C14.446 6.1355 15.8436 6.66033 16.7306 7.56209C17.5038 8.31308 17.8978 9.32504 17.8978 10.6211V10.6588C17.8978 12.6653 16.8211 13.9992 15.1784 14.6922L18.3354 19.2706H14.1046ZM30.9578 35.4763H20.232V22.3267H30.8644V25.4351H23.8617V27.4242H30.205V30.2948H23.8588V32.3796H30.9578V35.4763ZM30.9578 19.2706H20.232V6.1355H30.8644V9.23225H23.8617V11.2214H30.205V14.0919H23.8588V16.1738H30.9578V19.2706ZM42.0454 35.4763L39.5157 31.5155L36.9655 35.4763H32.8544L37.3857 28.8073L33.044 22.3267H37.2544L39.5886 26.0237L41.955 22.3267H46.072L41.7245 28.758L46.2558 35.4763H42.0454Z" fill="white"/>
</g>
<path d="M108.4 82L101.134 69.736H95.716V82H92.776V52.642H101.596C104.872 52.642 107.35 53.426 109.03 54.994C110.738 56.562 111.592 58.62 111.592 61.168C111.592 63.296 110.976 65.116 109.744 66.628C108.54 68.112 106.748 69.078 104.368 69.526L111.928 82H108.4ZM95.716 67.342H101.638C103.934 67.342 105.656 66.782 106.804 65.662C107.98 64.542 108.568 63.044 108.568 61.168C108.568 59.236 108.008 57.752 106.888 56.716C105.768 55.652 104.004 55.12 101.596 55.12H95.716V67.342ZM138.174 69.358C138.174 70.366 138.146 71.136 138.09 71.668H119.064C119.148 73.404 119.568 74.888 120.324 76.12C121.08 77.352 122.074 78.29 123.306 78.934C124.538 79.55 125.882 79.858 127.338 79.858C129.242 79.858 130.838 79.396 132.126 78.472C133.442 77.548 134.31 76.302 134.73 74.734H137.838C137.278 76.974 136.074 78.808 134.226 80.236C132.406 81.636 130.11 82.336 127.338 82.336C125.182 82.336 123.25 81.86 121.542 80.908C119.834 79.928 118.49 78.556 117.51 76.792C116.558 75 116.082 72.914 116.082 70.534C116.082 68.154 116.558 66.068 117.51 64.276C118.462 62.484 119.792 61.112 121.5 60.16C123.208 59.208 125.154 58.732 127.338 58.732C129.522 58.732 131.426 59.208 133.05 60.16C134.702 61.112 135.962 62.4 136.83 64.024C137.726 65.62 138.174 67.398 138.174 69.358ZM135.192 69.274C135.22 67.566 134.87 66.11 134.142 64.906C133.442 63.702 132.476 62.792 131.244 62.176C130.012 61.56 128.668 61.252 127.212 61.252C125.028 61.252 123.166 61.952 121.626 63.352C120.086 64.752 119.232 66.726 119.064 69.274H135.192ZM147.375 61.546V75.784C147.375 77.184 147.641 78.15 148.173 78.682C148.705 79.214 149.643 79.48 150.987 79.48H153.675V82H150.525C148.453 82 146.913 81.524 145.905 80.572C144.897 79.592 144.393 77.996 144.393 75.784V61.546H141.201V59.068H144.393V53.314H147.375V59.068H153.675V61.546H147.375ZM179.272 69.358C179.272 70.366 179.244 71.136 179.188 71.668H160.162C160.246 73.404 160.666 74.888 161.422 76.12C162.178 77.352 163.172 78.29 164.404 78.934C165.636 79.55 166.98 79.858 168.436 79.858C170.34 79.858 171.936 79.396 173.224 78.472C174.54 77.548 175.408 76.302 175.828 74.734H178.936C178.376 76.974 177.172 78.808 175.324 80.236C173.504 81.636 171.208 82.336 168.436 82.336C166.28 82.336 164.348 81.86 162.64 80.908C160.932 79.928 159.588 78.556 158.608 76.792C157.656 75 157.18 72.914 157.18 70.534C157.18 68.154 157.656 66.068 158.608 64.276C159.56 62.484 160.89 61.112 162.598 60.16C164.306 59.208 166.252 58.732 168.436 58.732C170.62 58.732 172.524 59.208 174.148 60.16C175.8 61.112 177.06 62.4 177.928 64.024C178.824 65.62 179.272 67.398 179.272 69.358ZM176.29 69.274C176.318 67.566 175.968 66.11 175.24 64.906C174.54 63.702 173.574 62.792 172.342 62.176C171.11 61.56 169.766 61.252 168.31 61.252C166.126 61.252 164.264 61.952 162.724 63.352C161.184 64.752 160.33 66.726 160.162 69.274H176.29ZM196.663 82L190.741 72.76L185.029 82H181.921L189.313 70.534L182.005 59.068H185.323L191.161 68.182L196.831 59.068H199.897L192.589 70.408L199.981 82H196.663ZM209.387 77.338H219.047V82H203.507V52.684H209.387V77.338ZM221.273 70.282C221.273 67.93 221.735 65.844 222.659 64.024C223.611 62.204 224.885 60.804 226.481 59.824C228.105 58.844 229.911 58.354 231.899 58.354C233.635 58.354 235.147 58.704 236.435 59.404C237.751 60.104 238.801 60.986 239.585 62.05V58.732H245.507V82H239.585V78.598C238.829 79.69 237.779 80.6 236.435 81.328C235.119 82.028 233.593 82.378 231.857 82.378C229.897 82.378 228.105 81.874 226.481 80.866C224.885 79.858 223.611 78.444 222.659 76.624C221.735 74.776 221.273 72.662 221.273 70.282ZM239.585 70.366C239.585 68.938 239.305 67.72 238.745 66.712C238.185 65.676 237.429 64.892 236.477 64.36C235.525 63.8 234.503 63.52 233.411 63.52C232.319 63.52 231.311 63.786 230.387 64.318C229.463 64.85 228.707 65.634 228.119 66.67C227.559 67.678 227.279 68.882 227.279 70.282C227.279 71.682 227.559 72.914 228.119 73.978C228.707 75.014 229.463 75.812 230.387 76.372C231.339 76.932 232.347 77.212 233.411 77.212C234.503 77.212 235.525 76.946 236.477 76.414C237.429 75.854 238.185 75.07 238.745 74.062C239.305 73.026 239.585 71.794 239.585 70.366ZM264.144 58.396C266.916 58.396 269.156 59.278 270.864 61.042C272.572 62.778 273.426 65.214 273.426 68.35V82H267.546V69.148C267.546 67.3 267.084 65.886 266.16 64.906C265.236 63.898 263.976 63.394 262.38 63.394C260.756 63.394 259.468 63.898 258.516 64.906C257.592 65.886 257.13 67.3 257.13 69.148V82H251.25V58.732H257.13V61.63C257.914 60.622 258.908 59.838 260.112 59.278C261.344 58.69 262.688 58.396 264.144 58.396ZM277.505 70.282C277.505 67.93 277.967 65.844 278.891 64.024C279.843 62.204 281.131 60.804 282.755 59.824C284.379 58.844 286.185 58.354 288.173 58.354C289.685 58.354 291.127 58.69 292.499 59.362C293.871 60.006 294.963 60.874 295.775 61.966V50.92H301.739V82H295.775V78.556C295.047 79.704 294.025 80.628 292.709 81.328C291.393 82.028 289.867 82.378 288.131 82.378C286.171 82.378 284.379 81.874 282.755 80.866C281.131 79.858 279.843 78.444 278.891 76.624C277.967 74.776 277.505 72.662 277.505 70.282ZM295.817 70.366C295.817 68.938 295.537 67.72 294.977 66.712C294.417 65.676 293.661 64.892 292.709 64.36C291.757 63.8 290.735 63.52 289.643 63.52C288.551 63.52 287.543 63.786 286.619 64.318C285.695 64.85 284.939 65.634 284.351 66.67C283.791 67.678 283.511 68.882 283.511 70.282C283.511 71.682 283.791 72.914 284.351 73.978C284.939 75.014 285.695 75.812 286.619 76.372C287.571 76.932 288.579 77.212 289.643 77.212C290.735 77.212 291.757 76.946 292.709 76.414C293.661 75.854 294.417 75.07 294.977 74.062C295.537 73.026 295.817 71.794 295.817 70.366Z" fill="white"/>
<defs>
<clipPath id="clip0_11_274">
<rect width="69" height="82" fill="white"/>
</clipPath>
</defs>
</svg>
