<svg width="16" height="17" viewBox="0 0 16 17" fill="none" xmlns="http://www.w3.org/2000/svg">
<path d="M1.33325 15.1667C1.33325 12.2211 3.72107 9.83334 6.66659 9.83334C9.61212 9.83334 11.9999 12.2211 11.9999 15.1667H10.6666C10.6666 12.9575 8.87572 11.1667 6.66659 11.1667C4.45745 11.1667 2.66659 12.9575 2.66659 15.1667H1.33325ZM6.66659 9.16667C4.45659 9.16667 2.66659 7.37667 2.66659 5.16667C2.66659 2.95667 4.45659 1.16667 6.66659 1.16667C8.87659 1.16667 10.6666 2.95667 10.6666 5.16667C10.6666 7.37667 8.87659 9.16667 6.66659 9.16667ZM6.66659 7.83334C8.13992 7.83334 9.33325 6.64001 9.33325 5.16667C9.33325 3.69334 8.13992 2.50001 6.66659 2.50001C5.19325 2.50001 3.99992 3.69334 3.99992 5.16667C3.99992 6.64001 5.19325 7.83334 6.66659 7.83334ZM12.1891 10.3019C14.0429 11.1374 15.3333 13.0013 15.3333 15.1667H13.9999C13.9999 13.5427 13.0321 12.1447 11.6418 11.5181L12.1891 10.3019ZM11.7307 2.77548C13.0629 3.32469 13.9999 4.63575 13.9999 6.16667C13.9999 8.08014 12.5361 9.65014 10.6666 9.81841V8.47641C11.7977 8.31481 12.6666 7.34267 12.6666 6.16667C12.6666 5.24624 12.1343 4.45069 11.3606 4.07091L11.7307 2.77548Z" fill="white"/>
</svg>
